<?xml version="1.0" encoding="utf-8"?>
<!-- Generator: Adobe Illustrator 24.0.1, SVG Export Plug-In . SVG Version: 6.00 Build 0)  -->
<svg version="1.1" id="Layer_1" xmlns="http://www.w3.org/2000/svg" xmlns:xlink="http://www.w3.org/1999/xlink" x="0px" y="0px"
	 viewBox="0 0 300 400" style="enable-background:new 0 0 300 400;" xml:space="preserve">
<style type="text/css">
	.st0{fill:url(#SVGID_1_);}
	.st1{fill:none;}
	.st2{font-family:'MyriadPro-Regular';}
	.st3{font-size:32px;}
	.st4{font-size:16px;}
</style>
<g id="bg">
	<linearGradient id="SVGID_1_" gradientUnits="userSpaceOnUse" x1="150" y1="9.64" x2="150" y2="387.3198">
		<stop  offset="0" style="stop-color:#FFFFFF"/>
		<stop  offset="1" style="stop-color:#6DD5E9"/>
	</linearGradient>
	<path class="st0" d="M285,400H15c-8.3,0-15-6.7-15-15V15C0,6.7,6.7,0,15,0h270c8.3,0,15,6.7,15,15v370C300,393.3,293.3,400,285,400
		z"/>
</g>
<rect x="11" y="235" class="st1" width="276" height="94"/>
<text transform="matrix(1 0 0 1 11 257.7197)"><tspan x="0" y="0" class="st2 st3">Бланк для </tspan><tspan x="0" y="32" class="st2 st3">баннера и для</tspan></text>
<rect x="11" y="329.4" class="st1" width="276" height="45.6"/>
<text transform="matrix(1 0 0 1 11 340.7598)"><tspan x="0" y="0" class="st2 st4">Пустой бланк для баннера. Нужен для </tspan><tspan x="0" y="16" class="st2 st4">создания нового баннера и </tspan><tspan x="0" y="32" class="st2 st4">добавления в список</tspan></text>
<image style="overflow:visible;" width="512" height="512" xlink:href="picture.png"  transform="matrix(0.4225 0 0 0.4225 41.68 4.68)">
</image>
</svg>
